<svg width="34" height="40" viewBox="0 0 34 40" fill="none" xmlns="http://www.w3.org/2000/svg">
<path fill-rule="evenodd" clip-rule="evenodd" d="M16.7 0.0210622C22.042 -0.224413 27.5384 1.67585 30.6915 5.72087C38.7176 16.0173 30.9551 29.9846 20.0738 29.9846C17.4897 29.9846 15.4596 29.4184 13.9163 28.4009C13.3232 28.0098 12.8255 27.5676 12.4095 27.0964L8.86654 38.5855C8.5405 39.6428 7.4172 40.2362 6.35758 39.9109C5.29796 39.5856 4.70328 38.4647 5.02931 37.4075L13.0589 11.369C13.3849 10.3117 14.5082 9.7183 15.5678 10.0436C16.6274 10.3689 17.2221 11.4898 16.8961 12.5471L14.4648 20.4312C14.4603 20.4624 14.455 20.5019 14.4494 20.5489C14.4306 20.7082 14.4097 20.9482 14.407 21.2403C14.4014 21.8388 14.4729 22.5785 14.7335 23.2784C14.9849 23.9538 15.4053 24.5811 16.1296 25.0587C16.8648 25.5434 18.0731 25.9786 20.0738 25.9786C27.5319 25.9787 33.5481 15.9104 27.5225 8.18027C25.3747 5.42493 21.2972 3.81998 16.8847 4.02275C12.5209 4.22328 8.20001 6.18367 5.60699 10.0646C3.92091 12.5882 3.76735 14.9971 4.26076 16.8183C4.78776 18.7634 5.96064 19.8323 6.69063 20.0645C7.74687 20.4006 8.33008 21.5274 7.99327 22.5813C7.65645 23.6353 6.52715 24.2172 5.47091 23.8811C3.05342 23.1119 1.14694 20.6756 0.38512 17.8637C-0.410285 14.9278 -0.0621072 11.3278 2.26651 7.84254C5.69571 2.71007 11.3095 0.26877 16.7 0.0210622Z" fill="black"/>
</svg>
